# xmcd
#
# Track frame offsets:
#	200
#	15587
#	32870
#	49660
#	69970
#	87332
#	105620
#	121487
#	138265
#	154737
#
# Disc length: 2216 seconds
#
# Revision: 1
# Processed by: cddbd v1.4PL0 Copyright (c) Steve Scherf et al.
# Submitted via: EasyCDDAExtractor 6.2.0.3
#
DISCID=7b08a60a
DTITLE=Midnight Creepers - Breaking Point
DYEAR=1993
DGENRE=Blues
TTITLE0=Two Against Them All
TTITLE1=Handful of Aces
TTITLE2=Luberta
TTITLE3=Another You
TTITLE4=Harder Than I Figured
TTITLE5=Breaking Point
TTITLE6=Undertow
TTITLE7=Hip Shakin' Baby
TTITLE8=Stop Draggin' That Chain Around
TTITLE9=Space Shot
EXTD=
EXTT0=
EXTT1=
EXTT2=
EXTT3=
EXTT4=
EXTT5=
EXTT6=
EXTT7=
EXTT8=
EXTT9=
PLAYORDER=
